# xmcd
#
# Track frame offsets:
#	150
#	23065
#	35591
#	49819
#	63105
#	70525
#	82810
#	100670
#	113092
#	132191
#	149374
#	165640
#	177827
#	191738
#	207757
#	222269
#	237520
#	249007
#	266127
#	285135
#
# Disc length: 3998 seconds
#
# Revision: 0
# Processed by: cddbd v1.4PL0 Copyright (c) Steve Scherf et al.
# Submitted via: EasyCDDAExtractor 4.6.0.1
#
DISCID=0e0f9c14
DTITLE=Cat Stevens - Classic
DYEAR=1900
DGENRE=
TTITLE0=On the road to find out
TTITLE1=Moonshadow
TTITLE2=Sitting
TTITLE3=Silent sunlight
TTITLE4=The wind
TTITLE5=Trouble
TTITLE6=Peace train
TTITLE7=(Remember the days of the) Old schoolyard
TTITLE8=18th Avenue
TTITLE9=Where Do The Children Play?
TTITLE10=Father and son
TTITLE11=If tou want to sing out, sing out
TTITLE12=Ghost town
TTITLE13=Tuesday´s dead
TTITLE14=Morning has broken
TTITLE15=Katmandu
TTITLE16=Oh very young
TTITLE17=Novim´s nightmare
TTITLE18=Ruins
TTITLE19=New York Times
EXTD=
EXTT0=
EXTT1=
EXTT2=
EXTT3=
EXTT4=
EXTT5=
EXTT6=
EXTT7=
EXTT8=
EXTT9=
EXTT10=
EXTT11=
EXTT12=
EXTT13=
EXTT14=
EXTT15=
EXTT16=
EXTT17=
EXTT18=
EXTT19=
PLAYORDER=
